<?xml version="1.0" encoding="UTF-8" standalone="no"?>
<!DOCTYPE svg PUBLIC "-//W3C//DTD SVG 1.1//EN" "http://www.w3.org/Graphics/SVG/1.1/DTD/svg11.dtd">
<svg width="100%" height="100%" viewBox="0 0 1920 1080" version="1.1" xmlns="http://www.w3.org/2000/svg" xmlns:xlink="http://www.w3.org/1999/xlink" xml:space="preserve" xmlns:serif="http://www.serif.com/" style="fill-rule:evenodd;clip-rule:evenodd;stroke-linejoin:round;stroke-miterlimit:2;">
    <path d="M515,1080C515,1080 622.653,886.089 711.17,716.155C778.02,587.817 822.383,496.657 822,496.5C821.62,496.344 1097.94,496.5 1097.94,496.5C1097.94,496.5 1168.89,644.043 1213.87,728.903C1267.28,829.682 1405.41,1080 1405.41,1080L1920,1080L1920,0L0,0L0,1080L515,1080Z" style="fill:url(#_Linear1);"/>
    <g transform="matrix(6.12323e-17,-1,1.79641,1.09998e-16,-118.743,1401.5)">
        <rect x="884" y="517" width="22" height="167" style="fill:url(#_Linear2);"/>
    </g>
    <defs>
        <linearGradient id="_Linear1" x1="0" y1="0" x2="1" y2="0" gradientUnits="userSpaceOnUse" gradientTransform="matrix(896.547,0,0,605.031,512,777.484)"><stop offset="0" style="stop-color:white;stop-opacity:1"/><stop offset="1" style="stop-color:white;stop-opacity:1"/></linearGradient>
        <linearGradient id="_Linear2" x1="0" y1="0" x2="1" y2="0" gradientUnits="userSpaceOnUse" gradientTransform="matrix(22,0,0,167,884,600.5)"><stop offset="0" style="stop-color:white;stop-opacity:0"/><stop offset="1" style="stop-color:white;stop-opacity:1"/></linearGradient>
    </defs>
</svg>
